<mxfile host="app.diagrams.net" modified="2024-02-18T05:31:36.670Z" agent="Mozilla/5.0 (Macintosh; Intel Mac OS X 10_15_7) AppleWebKit/537.36 (KHTML, like Gecko) Chrome/121.0.0.0 Safari/537.36" etag="UUvI4mb48cJRH33VyM0X" version="23.1.5" type="device">
  <diagram name="Page-1" id="2YBvvXClWsGukQMizWep">
    <mxGraphModel dx="790" dy="448" grid="1" gridSize="10" guides="1" tooltips="1" connect="1" arrows="1" fold="1" page="1" pageScale="1" pageWidth="2339" pageHeight="3300" math="0" shadow="0">
      <root>
        <mxCell id="0" />
        <mxCell id="1" parent="0" />
        <mxCell id="mFk2ntDi1FZEo7PVR0d0-32" value="PokemonRepo" style="shape=umlLifeline;perimeter=lifelinePerimeter;whiteSpace=wrap;html=1;container=0;dropTarget=0;collapsible=0;recursiveResize=0;outlineConnect=0;portConstraint=eastwest;newEdgeStyle={&quot;edgeStyle&quot;:&quot;elbowEdgeStyle&quot;,&quot;elbow&quot;:&quot;vertical&quot;,&quot;curved&quot;:0,&quot;rounded&quot;:0};" parent="1" vertex="1">
          <mxGeometry x="660" y="124" width="100" height="2090" as="geometry" />
        </mxCell>
        <mxCell id="mFk2ntDi1FZEo7PVR0d0-33" value="" style="html=1;points=[];perimeter=orthogonalPerimeter;outlineConnect=0;targetShapes=umlLifeline;portConstraint=eastwest;newEdgeStyle={&quot;edgeStyle&quot;:&quot;elbowEdgeStyle&quot;,&quot;elbow&quot;:&quot;vertical&quot;,&quot;curved&quot;:0,&quot;rounded&quot;:0};" parent="mFk2ntDi1FZEo7PVR0d0-32" vertex="1">
          <mxGeometry x="45" y="70" width="10" height="230" as="geometry" />
        </mxCell>
        <mxCell id="S-XOReM7cgO_mep5rTjn-3" value="BattleBuilder" style="shape=umlLifeline;perimeter=lifelinePerimeter;whiteSpace=wrap;html=1;container=0;dropTarget=0;collapsible=0;recursiveResize=0;outlineConnect=0;portConstraint=eastwest;newEdgeStyle={&quot;edgeStyle&quot;:&quot;elbowEdgeStyle&quot;,&quot;elbow&quot;:&quot;vertical&quot;,&quot;curved&quot;:0,&quot;rounded&quot;:0};" parent="1" vertex="1">
          <mxGeometry x="510" y="124" width="100" height="2090" as="geometry" />
        </mxCell>
        <mxCell id="S-XOReM7cgO_mep5rTjn-4" value="" style="html=1;points=[];perimeter=orthogonalPerimeter;outlineConnect=0;targetShapes=umlLifeline;portConstraint=eastwest;newEdgeStyle={&quot;edgeStyle&quot;:&quot;elbowEdgeStyle&quot;,&quot;elbow&quot;:&quot;vertical&quot;,&quot;curved&quot;:0,&quot;rounded&quot;:0};" parent="S-XOReM7cgO_mep5rTjn-3" vertex="1">
          <mxGeometry x="45" y="70" width="10" height="270" as="geometry" />
        </mxCell>
        <mxCell id="mFk2ntDi1FZEo7PVR0d0-14" value="Battle" style="shape=umlLifeline;perimeter=lifelinePerimeter;whiteSpace=wrap;html=1;container=0;dropTarget=0;collapsible=0;recursiveResize=0;outlineConnect=0;portConstraint=eastwest;newEdgeStyle={&quot;edgeStyle&quot;:&quot;elbowEdgeStyle&quot;,&quot;elbow&quot;:&quot;vertical&quot;,&quot;curved&quot;:0,&quot;rounded&quot;:0};" parent="1" vertex="1">
          <mxGeometry x="1140" y="124" width="90" height="2090" as="geometry" />
        </mxCell>
        <mxCell id="mFk2ntDi1FZEo7PVR0d0-15" value="" style="html=1;points=[];perimeter=orthogonalPerimeter;outlineConnect=0;targetShapes=umlLifeline;portConstraint=eastwest;newEdgeStyle={&quot;edgeStyle&quot;:&quot;elbowEdgeStyle&quot;,&quot;elbow&quot;:&quot;vertical&quot;,&quot;curved&quot;:0,&quot;rounded&quot;:0};" parent="mFk2ntDi1FZEo7PVR0d0-14" vertex="1">
          <mxGeometry x="40" y="290" width="10" height="70" as="geometry" />
        </mxCell>
        <mxCell id="mFk2ntDi1FZEo7PVR0d0-2" value="Skill" style="shape=umlLifeline;perimeter=lifelinePerimeter;whiteSpace=wrap;html=1;container=0;dropTarget=0;collapsible=0;recursiveResize=0;outlineConnect=0;portConstraint=eastwest;newEdgeStyle={&quot;edgeStyle&quot;:&quot;elbowEdgeStyle&quot;,&quot;elbow&quot;:&quot;vertical&quot;,&quot;curved&quot;:0,&quot;rounded&quot;:0};" parent="1" vertex="1">
          <mxGeometry x="1719" y="124" width="100" height="2090" as="geometry" />
        </mxCell>
        <mxCell id="mFk2ntDi1FZEo7PVR0d0-3" value="" style="html=1;points=[];perimeter=orthogonalPerimeter;outlineConnect=0;targetShapes=umlLifeline;portConstraint=eastwest;newEdgeStyle={&quot;edgeStyle&quot;:&quot;elbowEdgeStyle&quot;,&quot;elbow&quot;:&quot;vertical&quot;,&quot;curved&quot;:0,&quot;rounded&quot;:0};" parent="mFk2ntDi1FZEo7PVR0d0-2" vertex="1">
          <mxGeometry x="45" y="640" width="10" height="80" as="geometry" />
        </mxCell>
        <mxCell id="BJGmudPgznRf8jIf-ynD-28" value="" style="html=1;points=[];perimeter=orthogonalPerimeter;outlineConnect=0;targetShapes=umlLifeline;portConstraint=eastwest;newEdgeStyle={&quot;edgeStyle&quot;:&quot;elbowEdgeStyle&quot;,&quot;elbow&quot;:&quot;vertical&quot;,&quot;curved&quot;:0,&quot;rounded&quot;:0};" vertex="1" parent="mFk2ntDi1FZEo7PVR0d0-2">
          <mxGeometry x="45" y="1160" width="10" height="60" as="geometry" />
        </mxCell>
        <mxCell id="BJGmudPgznRf8jIf-ynD-29" value="" style="html=1;points=[];perimeter=orthogonalPerimeter;outlineConnect=0;targetShapes=umlLifeline;portConstraint=eastwest;newEdgeStyle={&quot;edgeStyle&quot;:&quot;elbowEdgeStyle&quot;,&quot;elbow&quot;:&quot;vertical&quot;,&quot;curved&quot;:0,&quot;rounded&quot;:0};" vertex="1" parent="mFk2ntDi1FZEo7PVR0d0-2">
          <mxGeometry x="45" y="1576" width="10" height="114" as="geometry" />
        </mxCell>
        <mxCell id="aM9ryv3xv72pqoxQDRHE-5" value="Pokemon Y" style="shape=umlLifeline;perimeter=lifelinePerimeter;whiteSpace=wrap;html=1;container=0;dropTarget=0;collapsible=0;recursiveResize=0;outlineConnect=0;portConstraint=eastwest;newEdgeStyle={&quot;edgeStyle&quot;:&quot;elbowEdgeStyle&quot;,&quot;elbow&quot;:&quot;vertical&quot;,&quot;curved&quot;:0,&quot;rounded&quot;:0};" parent="1" vertex="1">
          <mxGeometry x="1000" y="124" width="100" height="2090" as="geometry" />
        </mxCell>
        <mxCell id="aM9ryv3xv72pqoxQDRHE-6" value="" style="html=1;points=[];perimeter=orthogonalPerimeter;outlineConnect=0;targetShapes=umlLifeline;portConstraint=eastwest;newEdgeStyle={&quot;edgeStyle&quot;:&quot;elbowEdgeStyle&quot;,&quot;elbow&quot;:&quot;vertical&quot;,&quot;curved&quot;:0,&quot;rounded&quot;:0};" parent="aM9ryv3xv72pqoxQDRHE-5" vertex="1">
          <mxGeometry x="45" y="220" width="10" height="1670" as="geometry" />
        </mxCell>
        <mxCell id="mFk2ntDi1FZEo7PVR0d0-1" value="Actor" style="shape=umlActor;verticalLabelPosition=bottom;verticalAlign=top;html=1;outlineConnect=0;" parent="1" vertex="1">
          <mxGeometry x="30" y="114" width="30" height="60" as="geometry" />
        </mxCell>
        <mxCell id="mFk2ntDi1FZEo7PVR0d0-12" value="" style="endArrow=none;dashed=1;html=1;rounded=0;" parent="1" edge="1">
          <mxGeometry width="50" height="50" relative="1" as="geometry">
            <mxPoint x="40" y="2214" as="sourcePoint" />
            <mxPoint x="45" y="194" as="targetPoint" />
          </mxGeometry>
        </mxCell>
        <mxCell id="mFk2ntDi1FZEo7PVR0d0-68" value="stop" style="html=1;verticalAlign=bottom;endArrow=block;edgeStyle=elbowEdgeStyle;elbow=vertical;curved=0;rounded=0;" parent="1" edge="1" target="S-XOReM7cgO_mep5rTjn-92">
          <mxGeometry x="0.0061" relative="1" as="geometry">
            <mxPoint x="40" y="2004" as="sourcePoint" />
            <Array as="points">
              <mxPoint x="150.5" y="2004" />
              <mxPoint x="160.5" y="2004" />
              <mxPoint x="190.5" y="1984" />
            </Array>
            <mxPoint x="209" y="2004" as="targetPoint" />
            <mxPoint as="offset" />
          </mxGeometry>
        </mxCell>
        <mxCell id="mFk2ntDi1FZEo7PVR0d0-69" value="simulation terminated" style="html=1;verticalAlign=bottom;endArrow=blockThin;dashed=1;endSize=8;curved=0;rounded=0;endFill=1;" parent="1" edge="1">
          <mxGeometry relative="1" as="geometry">
            <mxPoint x="210" y="2024" as="sourcePoint" />
            <mxPoint x="40" y="2024" as="targetPoint" />
          </mxGeometry>
        </mxCell>
        <mxCell id="S-XOReM7cgO_mep5rTjn-5" value="Pokemon X" style="shape=umlLifeline;perimeter=lifelinePerimeter;whiteSpace=wrap;html=1;container=0;dropTarget=0;collapsible=0;recursiveResize=0;outlineConnect=0;portConstraint=eastwest;newEdgeStyle={&quot;edgeStyle&quot;:&quot;elbowEdgeStyle&quot;,&quot;elbow&quot;:&quot;vertical&quot;,&quot;curved&quot;:0,&quot;rounded&quot;:0};" parent="1" vertex="1">
          <mxGeometry x="880" y="124" width="100" height="2090" as="geometry" />
        </mxCell>
        <mxCell id="S-XOReM7cgO_mep5rTjn-6" value="" style="html=1;points=[];perimeter=orthogonalPerimeter;outlineConnect=0;targetShapes=umlLifeline;portConstraint=eastwest;newEdgeStyle={&quot;edgeStyle&quot;:&quot;elbowEdgeStyle&quot;,&quot;elbow&quot;:&quot;vertical&quot;,&quot;curved&quot;:0,&quot;rounded&quot;:0};" parent="S-XOReM7cgO_mep5rTjn-5" vertex="1">
          <mxGeometry x="45" y="220" width="10" height="1670" as="geometry" />
        </mxCell>
        <mxCell id="mFk2ntDi1FZEo7PVR0d0-79" value="Pokemon not found" style="html=1;verticalAlign=bottom;endArrow=block;curved=0;rounded=0;exitX=0.1;exitY=0.955;exitDx=0;exitDy=0;exitPerimeter=0;dashed=1;" parent="1" edge="1">
          <mxGeometry x="0.2012" width="80" relative="1" as="geometry">
            <mxPoint x="709" y="382.1" as="sourcePoint" />
            <mxPoint x="43" y="382" as="targetPoint" />
            <mxPoint as="offset" />
          </mxGeometry>
        </mxCell>
        <mxCell id="S-XOReM7cgO_mep5rTjn-7" value="BattleStateFactory" style="shape=umlLifeline;perimeter=lifelinePerimeter;whiteSpace=wrap;html=1;container=0;dropTarget=0;collapsible=0;recursiveResize=0;outlineConnect=0;portConstraint=eastwest;newEdgeStyle={&quot;edgeStyle&quot;:&quot;elbowEdgeStyle&quot;,&quot;elbow&quot;:&quot;vertical&quot;,&quot;curved&quot;:0,&quot;rounded&quot;:0};" parent="1" vertex="1">
          <mxGeometry x="1240" y="124" width="100" height="2090" as="geometry" />
        </mxCell>
        <mxCell id="S-XOReM7cgO_mep5rTjn-8" value="" style="html=1;points=[];perimeter=orthogonalPerimeter;outlineConnect=0;targetShapes=umlLifeline;portConstraint=eastwest;newEdgeStyle={&quot;edgeStyle&quot;:&quot;elbowEdgeStyle&quot;,&quot;elbow&quot;:&quot;vertical&quot;,&quot;curved&quot;:0,&quot;rounded&quot;:0};" parent="S-XOReM7cgO_mep5rTjn-7" vertex="1">
          <mxGeometry x="45" y="410" width="10" height="250" as="geometry" />
        </mxCell>
        <mxCell id="BJGmudPgznRf8jIf-ynD-41" value="" style="html=1;points=[];perimeter=orthogonalPerimeter;outlineConnect=0;targetShapes=umlLifeline;portConstraint=eastwest;newEdgeStyle={&quot;edgeStyle&quot;:&quot;elbowEdgeStyle&quot;,&quot;elbow&quot;:&quot;vertical&quot;,&quot;curved&quot;:0,&quot;rounded&quot;:0};" vertex="1" parent="S-XOReM7cgO_mep5rTjn-7">
          <mxGeometry x="45" y="1342" width="10" height="250" as="geometry" />
        </mxCell>
        <mxCell id="S-XOReM7cgO_mep5rTjn-10" value="setSeed(1)" style="html=1;verticalAlign=bottom;endArrow=block;edgeStyle=elbowEdgeStyle;elbow=horizontal;curved=0;rounded=0;exitX=0.5;exitY=0.667;exitDx=0;exitDy=0;exitPerimeter=0;" parent="1" edge="1">
          <mxGeometry x="0.0034" relative="1" as="geometry">
            <mxPoint x="385" y="282.04999999999995" as="sourcePoint" />
            <Array as="points" />
            <mxPoint x="555" y="282" as="targetPoint" />
            <mxPoint as="offset" />
          </mxGeometry>
        </mxCell>
        <mxCell id="S-XOReM7cgO_mep5rTjn-16" value="battle(PokemonX, PokemonY)" style="html=1;verticalAlign=bottom;endArrow=block;edgeStyle=elbowEdgeStyle;elbow=horizontal;curved=0;rounded=0;" parent="1" edge="1">
          <mxGeometry relative="1" as="geometry">
            <mxPoint x="223" y="335" as="sourcePoint" />
            <Array as="points" />
            <mxPoint x="373" y="335" as="targetPoint" />
            <mxPoint as="offset" />
          </mxGeometry>
        </mxCell>
        <mxCell id="S-XOReM7cgO_mep5rTjn-1" value="Command Processor" style="shape=umlLifeline;perimeter=lifelinePerimeter;whiteSpace=wrap;html=1;container=0;dropTarget=0;collapsible=0;recursiveResize=0;outlineConnect=0;portConstraint=eastwest;newEdgeStyle={&quot;edgeStyle&quot;:&quot;elbowEdgeStyle&quot;,&quot;elbow&quot;:&quot;vertical&quot;,&quot;curved&quot;:0,&quot;rounded&quot;:0};" parent="1" vertex="1">
          <mxGeometry x="166" y="124" width="100" height="2090" as="geometry" />
        </mxCell>
        <mxCell id="S-XOReM7cgO_mep5rTjn-2" value="" style="html=1;points=[];perimeter=orthogonalPerimeter;outlineConnect=0;targetShapes=umlLifeline;portConstraint=eastwest;newEdgeStyle={&quot;edgeStyle&quot;:&quot;elbowEdgeStyle&quot;,&quot;elbow&quot;:&quot;vertical&quot;,&quot;curved&quot;:0,&quot;rounded&quot;:0};" parent="S-XOReM7cgO_mep5rTjn-1" vertex="1">
          <mxGeometry x="45" y="70" width="10" height="150" as="geometry" />
        </mxCell>
        <mxCell id="S-XOReM7cgO_mep5rTjn-92" value="" style="html=1;points=[];perimeter=orthogonalPerimeter;outlineConnect=0;targetShapes=umlLifeline;portConstraint=eastwest;newEdgeStyle={&quot;edgeStyle&quot;:&quot;elbowEdgeStyle&quot;,&quot;elbow&quot;:&quot;vertical&quot;,&quot;curved&quot;:0,&quot;rounded&quot;:0};" parent="S-XOReM7cgO_mep5rTjn-1" vertex="1">
          <mxGeometry x="45" y="1870" width="10" height="40" as="geometry" />
        </mxCell>
        <mxCell id="mFk2ntDi1FZEo7PVR0d0-38" value="battle, Pokemon X, Pokemon Y" style="html=1;verticalAlign=bottom;startArrow=oval;endArrow=block;startSize=8;edgeStyle=elbowEdgeStyle;elbow=vertical;curved=0;rounded=0;" parent="1" edge="1">
          <mxGeometry x="-0.006" relative="1" as="geometry">
            <mxPoint x="48" y="304" as="sourcePoint" />
            <mxPoint x="213" y="304" as="targetPoint" />
            <mxPoint as="offset" />
            <Array as="points">
              <mxPoint x="88" y="304.25" />
            </Array>
          </mxGeometry>
        </mxCell>
        <mxCell id="S-XOReM7cgO_mep5rTjn-11" value="setseed, 1" style="html=1;verticalAlign=bottom;startArrow=oval;endArrow=block;startSize=8;edgeStyle=elbowEdgeStyle;elbow=vertical;curved=0;rounded=0;" parent="1" edge="1">
          <mxGeometry x="0.0133" relative="1" as="geometry">
            <mxPoint x="50" y="254" as="sourcePoint" />
            <mxPoint x="215" y="254" as="targetPoint" />
            <mxPoint as="offset" />
            <Array as="points">
              <mxPoint x="100" y="254" />
            </Array>
          </mxGeometry>
        </mxCell>
        <mxCell id="aM9ryv3xv72pqoxQDRHE-3" value="start game" style="html=1;verticalAlign=bottom;startArrow=oval;endArrow=block;startSize=8;edgeStyle=elbowEdgeStyle;elbow=vertical;curved=0;rounded=0;" parent="1" edge="1">
          <mxGeometry x="0.0182" relative="1" as="geometry">
            <mxPoint x="50" y="211" as="sourcePoint" />
            <mxPoint x="215" y="211" as="targetPoint" />
            <mxPoint as="offset" />
            <Array as="points">
              <mxPoint x="90" y="211" />
              <mxPoint x="80" y="201" />
            </Array>
          </mxGeometry>
        </mxCell>
        <mxCell id="S-XOReM7cgO_mep5rTjn-9" value="setSeed(1)" style="html=1;verticalAlign=bottom;endArrow=block;edgeStyle=elbowEdgeStyle;elbow=horizontal;curved=0;rounded=0;" parent="1" edge="1">
          <mxGeometry x="0.0034" relative="1" as="geometry">
            <mxPoint x="224" y="264" as="sourcePoint" />
            <Array as="points" />
            <mxPoint x="374" y="264" as="targetPoint" />
            <mxPoint as="offset" />
          </mxGeometry>
        </mxCell>
        <mxCell id="S-XOReM7cgO_mep5rTjn-17" value="battle(Pokemon X, Pokemon Y)" style="html=1;verticalAlign=bottom;endArrow=block;edgeStyle=elbowEdgeStyle;elbow=horizontal;curved=0;rounded=0;" parent="1" edge="1">
          <mxGeometry relative="1" as="geometry">
            <mxPoint x="386" y="339" as="sourcePoint" />
            <Array as="points" />
            <mxPoint x="556" y="339" as="targetPoint" />
            <mxPoint as="offset" />
          </mxGeometry>
        </mxCell>
        <mxCell id="mFk2ntDi1FZEo7PVR0d0-34" value="Game" style="shape=umlLifeline;perimeter=lifelinePerimeter;whiteSpace=wrap;html=1;container=0;dropTarget=0;collapsible=0;recursiveResize=0;outlineConnect=0;portConstraint=eastwest;newEdgeStyle={&quot;edgeStyle&quot;:&quot;elbowEdgeStyle&quot;,&quot;elbow&quot;:&quot;vertical&quot;,&quot;curved&quot;:0,&quot;rounded&quot;:0};" parent="1" vertex="1">
          <mxGeometry x="330" y="124" width="100" height="2090" as="geometry" />
        </mxCell>
        <mxCell id="mFk2ntDi1FZEo7PVR0d0-35" value="" style="html=1;points=[];perimeter=orthogonalPerimeter;outlineConnect=0;targetShapes=umlLifeline;portConstraint=eastwest;newEdgeStyle={&quot;edgeStyle&quot;:&quot;elbowEdgeStyle&quot;,&quot;elbow&quot;:&quot;vertical&quot;,&quot;curved&quot;:0,&quot;rounded&quot;:0};" parent="mFk2ntDi1FZEo7PVR0d0-34" vertex="1">
          <mxGeometry x="45" y="70" width="10" height="160" as="geometry" />
        </mxCell>
        <mxCell id="S-XOReM7cgO_mep5rTjn-19" value="setP1(Pokemon X)" style="html=1;verticalAlign=bottom;endArrow=block;edgeStyle=elbowEdgeStyle;elbow=vertical;curved=0;rounded=0;entryX=0.5;entryY=0.727;entryDx=0;entryDy=0;entryPerimeter=0;" parent="1" edge="1">
          <mxGeometry x="0.0034" relative="1" as="geometry">
            <mxPoint x="563" y="346" as="sourcePoint" />
            <Array as="points" />
            <mxPoint x="708" y="345.94000000000005" as="targetPoint" />
            <mxPoint as="offset" />
          </mxGeometry>
        </mxCell>
        <mxCell id="S-XOReM7cgO_mep5rTjn-22" value="Game()" style="html=1;verticalAlign=bottom;endArrow=block;edgeStyle=elbowEdgeStyle;elbow=horizontal;curved=0;rounded=0;entryX=0.5;entryY=0.067;entryDx=0;entryDy=0;entryPerimeter=0;" parent="1" edge="1">
          <mxGeometry x="-0.1765" relative="1" as="geometry">
            <mxPoint x="386" y="224" as="sourcePoint" />
            <Array as="points" />
            <mxPoint x="556" y="224" as="targetPoint" />
            <mxPoint as="offset" />
          </mxGeometry>
        </mxCell>
        <mxCell id="S-XOReM7cgO_mep5rTjn-23" value="BattleBuilder()" style="html=1;verticalAlign=bottom;endArrow=block;edgeStyle=elbowEdgeStyle;elbow=horizontal;curved=0;rounded=0;entryX=0.5;entryY=0.318;entryDx=0;entryDy=0;entryPerimeter=0;" parent="1" edge="1">
          <mxGeometry x="0.0014" relative="1" as="geometry">
            <mxPoint x="563" y="232.25" as="sourcePoint" />
            <Array as="points">
              <mxPoint x="608" y="232.25" />
            </Array>
            <mxPoint x="708" y="232.21000000000004" as="targetPoint" />
            <mxPoint as="offset" />
          </mxGeometry>
        </mxCell>
        <mxCell id="S-XOReM7cgO_mep5rTjn-25" value="build()" style="html=1;verticalAlign=bottom;endArrow=block;edgeStyle=elbowEdgeStyle;elbow=horizontal;curved=0;rounded=0;" parent="1" edge="1">
          <mxGeometry x="-0.7639" relative="1" as="geometry">
            <mxPoint x="568" y="429" as="sourcePoint" />
            <Array as="points" />
            <mxPoint x="1178" y="429" as="targetPoint" />
            <mxPoint as="offset" />
          </mxGeometry>
        </mxCell>
        <mxCell id="S-XOReM7cgO_mep5rTjn-26" value="setP2(Pokemon Y)" style="html=1;verticalAlign=bottom;endArrow=block;edgeStyle=elbowEdgeStyle;elbow=vertical;curved=0;rounded=0;entryX=0.5;entryY=0.727;entryDx=0;entryDy=0;entryPerimeter=0;" parent="1" edge="1">
          <mxGeometry x="0.0034" relative="1" as="geometry">
            <mxPoint x="563" y="365" as="sourcePoint" />
            <Array as="points" />
            <mxPoint x="708" y="364.94000000000005" as="targetPoint" />
            <mxPoint as="offset" />
          </mxGeometry>
        </mxCell>
        <mxCell id="S-XOReM7cgO_mep5rTjn-27" value="get(Pokemon Y)" style="html=1;verticalAlign=bottom;endArrow=block;edgeStyle=elbowEdgeStyle;elbow=vertical;curved=0;rounded=0;" parent="1" edge="1">
          <mxGeometry x="-0.3722" relative="1" as="geometry">
            <mxPoint x="715" y="414" as="sourcePoint" />
            <Array as="points">
              <mxPoint x="730" y="414" />
            </Array>
            <mxPoint x="1049.5" y="414" as="targetPoint" />
            <mxPoint as="offset" />
          </mxGeometry>
        </mxCell>
        <mxCell id="S-XOReM7cgO_mep5rTjn-28" value="get(Pokemon X)" style="html=1;verticalAlign=bottom;endArrow=block;edgeStyle=elbowEdgeStyle;elbow=vertical;curved=0;rounded=0;" parent="1" edge="1">
          <mxGeometry x="-0.0239" relative="1" as="geometry">
            <mxPoint x="715" y="396" as="sourcePoint" />
            <Array as="points" />
            <mxPoint x="930" y="396" as="targetPoint" />
            <mxPoint as="offset" />
          </mxGeometry>
        </mxCell>
        <mxCell id="S-XOReM7cgO_mep5rTjn-29" value="battle()" style="html=1;verticalAlign=bottom;endArrow=block;curved=0;rounded=0;" parent="1" edge="1">
          <mxGeometry x="0.68" width="80" relative="1" as="geometry">
            <mxPoint x="1180" y="451" as="sourcePoint" />
            <mxPoint x="930" y="450.5" as="targetPoint" />
            <mxPoint as="offset" />
          </mxGeometry>
        </mxCell>
        <mxCell id="S-XOReM7cgO_mep5rTjn-30" value="isFainted() == False" style="html=1;verticalAlign=bottom;endArrow=block;edgeStyle=orthogonalEdgeStyle;elbow=vertical;rounded=0;exitX=0.1;exitY=0.212;exitDx=0;exitDy=0;exitPerimeter=0;" parent="1" edge="1">
          <mxGeometry x="-0.2254" relative="1" as="geometry">
            <mxPoint x="936" y="480" as="sourcePoint" />
            <Array as="points">
              <mxPoint x="936" y="481" />
              <mxPoint x="997" y="481" />
            </Array>
            <mxPoint x="936" y="500" as="targetPoint" />
            <mxPoint as="offset" />
          </mxGeometry>
        </mxCell>
        <mxCell id="S-XOReM7cgO_mep5rTjn-36" value="shouldAttack()" style="html=1;verticalAlign=bottom;endArrow=block;edgeStyle=elbowEdgeStyle;elbow=vertical;curved=0;rounded=0;exitX=0.1;exitY=0.212;exitDx=0;exitDy=0;exitPerimeter=0;" parent="1" edge="1">
          <mxGeometry x="0.717" relative="1" as="geometry">
            <mxPoint x="936" y="552" as="sourcePoint" />
            <Array as="points" />
            <mxPoint x="1284" y="552" as="targetPoint" />
            <mxPoint as="offset" />
          </mxGeometry>
        </mxCell>
        <mxCell id="S-XOReM7cgO_mep5rTjn-37" value="StrongBattleState" style="shape=umlLifeline;perimeter=lifelinePerimeter;whiteSpace=wrap;html=1;container=0;dropTarget=0;collapsible=0;recursiveResize=0;outlineConnect=0;portConstraint=eastwest;newEdgeStyle={&quot;edgeStyle&quot;:&quot;elbowEdgeStyle&quot;,&quot;elbow&quot;:&quot;vertical&quot;,&quot;curved&quot;:0,&quot;rounded&quot;:0};" parent="1" vertex="1">
          <mxGeometry x="1350" y="124" width="100" height="2090" as="geometry" />
        </mxCell>
        <mxCell id="S-XOReM7cgO_mep5rTjn-38" value="" style="html=1;points=[];perimeter=orthogonalPerimeter;outlineConnect=0;targetShapes=umlLifeline;portConstraint=eastwest;newEdgeStyle={&quot;edgeStyle&quot;:&quot;elbowEdgeStyle&quot;,&quot;elbow&quot;:&quot;vertical&quot;,&quot;curved&quot;:0,&quot;rounded&quot;:0};" parent="S-XOReM7cgO_mep5rTjn-37" vertex="1">
          <mxGeometry x="45" y="440" width="10" height="220" as="geometry" />
        </mxCell>
        <mxCell id="S-XOReM7cgO_mep5rTjn-39" value="WeakenedBattleState" style="shape=umlLifeline;perimeter=lifelinePerimeter;whiteSpace=wrap;html=1;container=0;dropTarget=0;collapsible=0;recursiveResize=0;outlineConnect=0;portConstraint=eastwest;newEdgeStyle={&quot;edgeStyle&quot;:&quot;elbowEdgeStyle&quot;,&quot;elbow&quot;:&quot;vertical&quot;,&quot;curved&quot;:0,&quot;rounded&quot;:0};" parent="1" vertex="1">
          <mxGeometry x="1460" y="124" width="130" height="2090" as="geometry" />
        </mxCell>
        <mxCell id="S-XOReM7cgO_mep5rTjn-40" value="" style="html=1;points=[];perimeter=orthogonalPerimeter;outlineConnect=0;targetShapes=umlLifeline;portConstraint=eastwest;newEdgeStyle={&quot;edgeStyle&quot;:&quot;elbowEdgeStyle&quot;,&quot;elbow&quot;:&quot;vertical&quot;,&quot;curved&quot;:0,&quot;rounded&quot;:0};" parent="S-XOReM7cgO_mep5rTjn-39" vertex="1">
          <mxGeometry x="60" y="440" width="10" height="220" as="geometry" />
        </mxCell>
        <mxCell id="BJGmudPgznRf8jIf-ynD-30" value="" style="html=1;points=[];perimeter=orthogonalPerimeter;outlineConnect=0;targetShapes=umlLifeline;portConstraint=eastwest;newEdgeStyle={&quot;edgeStyle&quot;:&quot;elbowEdgeStyle&quot;,&quot;elbow&quot;:&quot;vertical&quot;,&quot;curved&quot;:0,&quot;rounded&quot;:0};" vertex="1" parent="S-XOReM7cgO_mep5rTjn-39">
          <mxGeometry x="60" y="951" width="10" height="220" as="geometry" />
        </mxCell>
        <mxCell id="S-XOReM7cgO_mep5rTjn-41" value="CriticalBattleState" style="shape=umlLifeline;perimeter=lifelinePerimeter;whiteSpace=wrap;html=1;container=0;dropTarget=0;collapsible=0;recursiveResize=0;outlineConnect=0;portConstraint=eastwest;newEdgeStyle={&quot;edgeStyle&quot;:&quot;elbowEdgeStyle&quot;,&quot;elbow&quot;:&quot;vertical&quot;,&quot;curved&quot;:0,&quot;rounded&quot;:0};" parent="1" vertex="1">
          <mxGeometry x="1600" y="124" width="100" height="2090" as="geometry" />
        </mxCell>
        <mxCell id="S-XOReM7cgO_mep5rTjn-42" value="" style="html=1;points=[];perimeter=orthogonalPerimeter;outlineConnect=0;targetShapes=umlLifeline;portConstraint=eastwest;newEdgeStyle={&quot;edgeStyle&quot;:&quot;elbowEdgeStyle&quot;,&quot;elbow&quot;:&quot;vertical&quot;,&quot;curved&quot;:0,&quot;rounded&quot;:0};" parent="S-XOReM7cgO_mep5rTjn-41" vertex="1">
          <mxGeometry x="45" y="440" width="10" height="220" as="geometry" />
        </mxCell>
        <mxCell id="S-XOReM7cgO_mep5rTjn-43" value="getBattleState()" style="html=1;verticalAlign=bottom;endArrow=block;edgeStyle=elbowEdgeStyle;elbow=vertical;curved=0;rounded=0;exitX=0.1;exitY=0.212;exitDx=0;exitDy=0;exitPerimeter=0;" parent="1" edge="1">
          <mxGeometry relative="1" as="geometry">
            <mxPoint x="1286" y="614" as="sourcePoint" />
            <Array as="points" />
            <mxPoint x="1400" y="614" as="targetPoint" />
            <mxPoint as="offset" />
          </mxGeometry>
        </mxCell>
        <mxCell id="S-XOReM7cgO_mep5rTjn-44" value="getBattleState()" style="html=1;verticalAlign=bottom;endArrow=block;edgeStyle=elbowEdgeStyle;elbow=vertical;curved=0;rounded=0;exitX=0.1;exitY=0.212;exitDx=0;exitDy=0;exitPerimeter=0;" parent="1" target="S-XOReM7cgO_mep5rTjn-40" edge="1">
          <mxGeometry x="-0.5349" relative="1" as="geometry">
            <mxPoint x="1292.5" y="674" as="sourcePoint" />
            <Array as="points" />
            <mxPoint x="1507.5" y="674.0769230769231" as="targetPoint" />
            <mxPoint as="offset" />
          </mxGeometry>
        </mxCell>
        <mxCell id="S-XOReM7cgO_mep5rTjn-45" value="getBattleState()" style="html=1;verticalAlign=bottom;endArrow=block;edgeStyle=elbowEdgeStyle;elbow=vertical;curved=0;rounded=0;exitX=0.1;exitY=0.212;exitDx=0;exitDy=0;exitPerimeter=0;" parent="1" edge="1">
          <mxGeometry x="-0.7339" relative="1" as="geometry">
            <mxPoint x="1292.5" y="724" as="sourcePoint" />
            <Array as="points" />
            <mxPoint x="1649.5" y="724.0769230769231" as="targetPoint" />
            <mxPoint x="1" as="offset" />
          </mxGeometry>
        </mxCell>
        <mxCell id="S-XOReM7cgO_mep5rTjn-47" value="shouldAttack()" style="html=1;verticalAlign=bottom;endArrow=blockThin;endSize=8;curved=0;rounded=0;endFill=1;dashed=1;" parent="1" edge="1">
          <mxGeometry x="-0.764" relative="1" as="geometry">
            <mxPoint x="1395.0000000000002" y="634" as="sourcePoint" />
            <mxPoint x="928.9615384615386" y="634" as="targetPoint" />
            <mxPoint as="offset" />
          </mxGeometry>
        </mxCell>
        <mxCell id="S-XOReM7cgO_mep5rTjn-48" value="shouldAttack()" style="html=1;verticalAlign=bottom;endArrow=blockThin;endSize=8;curved=0;rounded=0;endFill=1;dashed=1;" parent="1" source="S-XOReM7cgO_mep5rTjn-40" edge="1">
          <mxGeometry x="-0.3898" relative="1" as="geometry">
            <mxPoint x="1396.0000000000002" y="694" as="sourcePoint" />
            <mxPoint x="930" y="694" as="targetPoint" />
            <mxPoint as="offset" />
          </mxGeometry>
        </mxCell>
        <mxCell id="S-XOReM7cgO_mep5rTjn-49" value="shouldAttack()" style="html=1;verticalAlign=bottom;endArrow=blockThin;endSize=8;curved=0;rounded=0;endFill=1;dashed=1;" parent="1" source="S-XOReM7cgO_mep5rTjn-41" edge="1">
          <mxGeometry x="-0.1397" relative="1" as="geometry">
            <mxPoint x="1520" y="744" as="sourcePoint" />
            <mxPoint x="930" y="744" as="targetPoint" />
            <mxPoint as="offset" />
          </mxGeometry>
        </mxCell>
        <mxCell id="S-XOReM7cgO_mep5rTjn-50" value="chooseAttack()" style="html=1;verticalAlign=bottom;endArrow=block;edgeStyle=elbowEdgeStyle;elbow=vertical;curved=0;rounded=0;exitX=0.1;exitY=0.212;exitDx=0;exitDy=0;exitPerimeter=0;" parent="1" target="mFk2ntDi1FZEo7PVR0d0-2" edge="1">
          <mxGeometry x="-0.8562" relative="1" as="geometry">
            <mxPoint x="930" y="793.47" as="sourcePoint" />
            <Array as="points" />
            <mxPoint x="1285" y="793.47" as="targetPoint" />
            <mxPoint as="offset" />
          </mxGeometry>
        </mxCell>
        <mxCell id="S-XOReM7cgO_mep5rTjn-51" value="getName() / getPower()" style="html=1;verticalAlign=bottom;endArrow=blockThin;endSize=8;curved=0;rounded=0;endFill=1;dashed=1;" parent="1" edge="1" target="S-XOReM7cgO_mep5rTjn-5">
          <mxGeometry x="0.8322" relative="1" as="geometry">
            <mxPoint x="1770" y="824" as="sourcePoint" />
            <mxPoint x="1190" y="824" as="targetPoint" />
            <mxPoint as="offset" />
          </mxGeometry>
        </mxCell>
        <mxCell id="S-XOReM7cgO_mep5rTjn-52" value="Pokemon X is attacking with &amp;lt;AttackSkill&amp;gt; for &amp;lt;AttackPower&amp;gt; damage to Pokemon Y&amp;nbsp;" style="html=1;verticalAlign=bottom;endArrow=blockThin;dashed=1;endSize=8;curved=0;rounded=0;endFill=1;" parent="1" edge="1">
          <mxGeometry x="0.0957" relative="1" as="geometry">
            <mxPoint x="930" y="844" as="sourcePoint" />
            <mxPoint x="40" y="844" as="targetPoint" />
            <mxPoint as="offset" />
          </mxGeometry>
        </mxCell>
        <mxCell id="S-XOReM7cgO_mep5rTjn-53" value="alt" style="shape=umlFrame;whiteSpace=wrap;html=1;pointerEvents=0;width=40;height=20;" parent="1" vertex="1">
          <mxGeometry x="880" y="584" width="810" height="180" as="geometry" />
        </mxCell>
        <mxCell id="S-XOReM7cgO_mep5rTjn-54" value="battle()" style="html=1;verticalAlign=bottom;endArrow=block;curved=0;rounded=0;" parent="1" edge="1">
          <mxGeometry width="80" relative="1" as="geometry">
            <mxPoint x="929.5" y="857" as="sourcePoint" />
            <mxPoint x="1050" y="857" as="targetPoint" />
          </mxGeometry>
        </mxCell>
        <mxCell id="S-XOReM7cgO_mep5rTjn-55" value="Pokemon Y has received &amp;lt;AttackPower&amp;gt; dmg, remaining hp is &amp;lt;RemainingHP&amp;gt;" style="html=1;verticalAlign=bottom;endArrow=blockThin;dashed=1;endSize=8;curved=0;rounded=0;endFill=1;" parent="1" edge="1">
          <mxGeometry x="0.0099" relative="1" as="geometry">
            <mxPoint x="1050" y="898" as="sourcePoint" />
            <mxPoint x="40" y="898" as="targetPoint" />
            <mxPoint as="offset" />
          </mxGeometry>
        </mxCell>
        <mxCell id="S-XOReM7cgO_mep5rTjn-62" value="chooseDefense()" style="html=1;verticalAlign=bottom;endArrow=block;edgeStyle=elbowEdgeStyle;elbow=vertical;curved=0;rounded=0;exitX=0.1;exitY=0.212;exitDx=0;exitDy=0;exitPerimeter=0;" parent="1" edge="1">
          <mxGeometry x="-0.8562" relative="1" as="geometry">
            <mxPoint x="930" y="1303.47" as="sourcePoint" />
            <Array as="points" />
            <mxPoint x="1770" y="1303.9999999999998" as="targetPoint" />
            <mxPoint as="offset" />
          </mxGeometry>
        </mxCell>
        <mxCell id="S-XOReM7cgO_mep5rTjn-64" value="getBattleState()" style="html=1;verticalAlign=bottom;endArrow=block;edgeStyle=elbowEdgeStyle;elbow=vertical;curved=0;rounded=0;" parent="1" edge="1">
          <mxGeometry x="-0.0078" relative="1" as="geometry">
            <mxPoint x="1294" y="1125" as="sourcePoint" />
            <Array as="points" />
            <mxPoint x="1398" y="1124.55" as="targetPoint" />
            <mxPoint as="offset" />
          </mxGeometry>
        </mxCell>
        <mxCell id="S-XOReM7cgO_mep5rTjn-67" value="shouldAttack()" style="html=1;verticalAlign=bottom;endArrow=block;edgeStyle=elbowEdgeStyle;elbow=vertical;curved=0;rounded=0;exitX=0.1;exitY=0.212;exitDx=0;exitDy=0;exitPerimeter=0;" parent="1" edge="1">
          <mxGeometry x="0.6719" relative="1" as="geometry">
            <mxPoint x="933" y="1056.6399999999999" as="sourcePoint" />
            <Array as="points" />
            <mxPoint x="1288" y="1056.6399999999999" as="targetPoint" />
            <mxPoint as="offset" />
          </mxGeometry>
        </mxCell>
        <mxCell id="S-XOReM7cgO_mep5rTjn-69" value="getName()" style="html=1;verticalAlign=bottom;endArrow=blockThin;endSize=8;curved=0;rounded=0;endFill=1;dashed=1;" parent="1" edge="1" target="S-XOReM7cgO_mep5rTjn-5">
          <mxGeometry x="0.7627" relative="1" as="geometry">
            <mxPoint x="1770" y="1324" as="sourcePoint" />
            <mxPoint x="1190" y="1324" as="targetPoint" />
            <mxPoint as="offset" />
          </mxGeometry>
        </mxCell>
        <mxCell id="S-XOReM7cgO_mep5rTjn-70" value="Pokemon X is attempting to defend with &amp;lt;DefenseSkill&amp;gt;" style="html=1;verticalAlign=bottom;endArrow=blockThin;dashed=1;endSize=8;curved=0;rounded=0;endFill=1;" parent="1" edge="1">
          <mxGeometry x="0.0913" relative="1" as="geometry">
            <mxPoint x="930" y="1338" as="sourcePoint" />
            <mxPoint x="40" y="1338" as="targetPoint" />
            <mxPoint as="offset" />
          </mxGeometry>
        </mxCell>
        <mxCell id="S-XOReM7cgO_mep5rTjn-73" value="shouldAttack()" style="html=1;verticalAlign=bottom;endArrow=blockThin;endSize=8;curved=0;rounded=0;endFill=1;dashed=1;" parent="1" edge="1">
          <mxGeometry x="-0.764" relative="1" as="geometry">
            <mxPoint x="1395.0000000000002" y="1580" as="sourcePoint" />
            <mxPoint x="1050" y="1579" as="targetPoint" />
            <mxPoint as="offset" />
          </mxGeometry>
        </mxCell>
        <mxCell id="S-XOReM7cgO_mep5rTjn-77" value="getBattleState()" style="html=1;verticalAlign=bottom;endArrow=block;edgeStyle=elbowEdgeStyle;elbow=vertical;curved=0;rounded=0;" parent="1" edge="1">
          <mxGeometry relative="1" as="geometry">
            <mxPoint x="1295" y="1561" as="sourcePoint" />
            <Array as="points" />
            <mxPoint x="1399" y="1560.55" as="targetPoint" />
            <mxPoint as="offset" />
          </mxGeometry>
        </mxCell>
        <mxCell id="S-XOReM7cgO_mep5rTjn-80" value="shouldAttack()" style="html=1;verticalAlign=bottom;endArrow=block;edgeStyle=elbowEdgeStyle;elbow=vertical;curved=0;rounded=0;" parent="1" edge="1">
          <mxGeometry x="0.5216" relative="1" as="geometry">
            <mxPoint x="1055" y="1496.36" as="sourcePoint" />
            <Array as="points" />
            <mxPoint x="1285" y="1495.9999999999998" as="targetPoint" />
            <mxPoint as="offset" />
          </mxGeometry>
        </mxCell>
        <mxCell id="S-XOReM7cgO_mep5rTjn-81" value="chooseAttack()" style="html=1;verticalAlign=bottom;endArrow=block;edgeStyle=elbowEdgeStyle;elbow=vertical;curved=0;rounded=0;" parent="1" edge="1">
          <mxGeometry x="-0.8562" relative="1" as="geometry">
            <mxPoint x="1052" y="1727" as="sourcePoint" />
            <Array as="points" />
            <mxPoint x="1767" y="1727" as="targetPoint" />
            <mxPoint as="offset" />
          </mxGeometry>
        </mxCell>
        <mxCell id="S-XOReM7cgO_mep5rTjn-82" value="getName() / getPower()" style="html=1;verticalAlign=bottom;endArrow=blockThin;endSize=8;curved=0;rounded=0;endFill=1;dashed=1;" parent="1" edge="1">
          <mxGeometry x="0.7621" relative="1" as="geometry">
            <mxPoint x="1763" y="1745" as="sourcePoint" />
            <mxPoint x="1052.5" y="1744.9999999999998" as="targetPoint" />
            <mxPoint as="offset" />
          </mxGeometry>
        </mxCell>
        <mxCell id="S-XOReM7cgO_mep5rTjn-83" value="Pokemon Y is attacking with &amp;lt;AttackSkill&amp;gt; for &amp;lt;AttackPower&amp;gt; damage to Pokemon X&amp;nbsp;" style="html=1;verticalAlign=bottom;endArrow=blockThin;dashed=1;endSize=8;curved=0;rounded=0;endFill=1;" parent="1" edge="1">
          <mxGeometry x="0.0965" relative="1" as="geometry">
            <mxPoint x="1050" y="1754" as="sourcePoint" />
            <mxPoint x="40" y="1754" as="targetPoint" />
            <mxPoint x="1" as="offset" />
          </mxGeometry>
        </mxCell>
        <mxCell id="S-XOReM7cgO_mep5rTjn-84" value="battle()" style="html=1;verticalAlign=bottom;endArrow=block;curved=0;rounded=0;" parent="1" edge="1">
          <mxGeometry x="-0.0041" width="80" relative="1" as="geometry">
            <mxPoint x="1045" y="1774" as="sourcePoint" />
            <mxPoint x="934.5" y="1774" as="targetPoint" />
            <mxPoint as="offset" />
          </mxGeometry>
        </mxCell>
        <mxCell id="S-XOReM7cgO_mep5rTjn-87" value="getPower() - for Pokemon X&#39;s defense skill" style="html=1;verticalAlign=bottom;endArrow=blockThin;endSize=8;curved=0;rounded=0;endFill=1;dashed=1;" parent="1" edge="1">
          <mxGeometry x="0.4021" relative="1" as="geometry">
            <mxPoint x="1764.25" y="1797" as="sourcePoint" />
            <mxPoint x="935" y="1797" as="targetPoint" />
            <mxPoint as="offset" />
          </mxGeometry>
        </mxCell>
        <mxCell id="S-XOReM7cgO_mep5rTjn-88" value="Pokemon X successfully reduced Pokemon Y&#39;s damage by &amp;lt;DefencePower&amp;gt; with &amp;lt;DefenseSkill&amp;gt;&lt;br&gt;Pokemon X has received &amp;lt;max(0, AttackPower - DefensePower&amp;gt; dmg, remaining hp is &amp;lt;RemainingHP&amp;gt;" style="html=1;verticalAlign=bottom;endArrow=blockThin;dashed=1;endSize=8;curved=0;rounded=0;endFill=1;" parent="1" edge="1">
          <mxGeometry x="-0.1685" relative="1" as="geometry">
            <mxPoint x="930" y="1849" as="sourcePoint" />
            <mxPoint x="40" y="1849" as="targetPoint" />
            <mxPoint as="offset" />
          </mxGeometry>
        </mxCell>
        <mxCell id="S-XOReM7cgO_mep5rTjn-91" value="Pokemon X has lost&lt;br&gt;Pokemon Y has won the battle" style="html=1;verticalAlign=bottom;endArrow=blockThin;dashed=1;endSize=8;curved=0;rounded=0;endFill=1;" parent="1" edge="1">
          <mxGeometry x="-0.2764" relative="1" as="geometry">
            <mxPoint x="928" y="1925" as="sourcePoint" />
            <mxPoint x="37.99736842105263" y="1925" as="targetPoint" />
            <mxPoint as="offset" />
          </mxGeometry>
        </mxCell>
        <mxCell id="S-XOReM7cgO_mep5rTjn-93" value="" style="shape=curlyBracket;whiteSpace=wrap;html=1;rounded=1;flipH=1;labelPosition=right;verticalLabelPosition=middle;align=left;verticalAlign=middle;" parent="1" vertex="1">
          <mxGeometry x="1910" y="454" width="20" height="480" as="geometry" />
        </mxCell>
        <mxCell id="S-XOReM7cgO_mep5rTjn-94" value="" style="shape=curlyBracket;whiteSpace=wrap;html=1;rounded=1;flipH=1;labelPosition=right;verticalLabelPosition=middle;align=left;verticalAlign=middle;" parent="1" vertex="1">
          <mxGeometry x="1910" y="184" width="20" height="250" as="geometry" />
        </mxCell>
        <mxCell id="S-XOReM7cgO_mep5rTjn-95" value="Game Initilization" style="text;html=1;align=center;verticalAlign=middle;resizable=0;points=[];autosize=1;strokeColor=none;fillColor=none;fontStyle=1" parent="1" vertex="1">
          <mxGeometry x="1950" y="294" width="120" height="30" as="geometry" />
        </mxCell>
        <mxCell id="S-XOReM7cgO_mep5rTjn-96" value="&lt;b&gt;Type 1 Event&lt;/b&gt;:&amp;nbsp;&lt;br&gt;One complete turn of fa battle where Pokemon X attacks &lt;br&gt;Pokemon Y and Pokemon Y did NOT defend itself.&lt;br&gt;&lt;br&gt;&lt;div style=&quot;text-align: left;&quot;&gt;&lt;span style=&quot;background-color: initial;&quot;&gt;As the game just started, Y does not have any defense skill in this turn.&lt;/span&gt;&lt;/div&gt;&lt;div style=&quot;text-align: left;&quot;&gt;&lt;span style=&quot;background-color: initial;&quot;&gt;&lt;br&gt;&lt;/span&gt;&lt;/div&gt;&lt;div style=&quot;text-align: left;&quot;&gt;&lt;span style=&quot;background-color: initial;&quot;&gt;Attack skill is chosen given the type 1 event instruction.&lt;/span&gt;&lt;/div&gt;&lt;div style=&quot;text-align: left;&quot;&gt;&lt;span style=&quot;background-color: initial;&quot;&gt;Therefore, no randomness shown in this step.&lt;/span&gt;&lt;/div&gt;" style="text;html=1;align=center;verticalAlign=middle;resizable=0;points=[];autosize=1;strokeColor=none;fillColor=none;" parent="1" vertex="1">
          <mxGeometry x="1930" y="624" width="400" height="130" as="geometry" />
        </mxCell>
        <mxCell id="S-XOReM7cgO_mep5rTjn-99" value="" style="shape=curlyBracket;whiteSpace=wrap;html=1;rounded=1;flipH=1;labelPosition=right;verticalLabelPosition=middle;align=left;verticalAlign=middle;" parent="1" vertex="1">
          <mxGeometry x="1910" y="974" width="20" height="880" as="geometry" />
        </mxCell>
        <mxCell id="S-XOReM7cgO_mep5rTjn-100" value="&lt;b&gt;Type 2 Event&lt;/b&gt;:&amp;nbsp;&lt;br&gt;One complete turn of fa battle where Pokemon Y attacks &lt;br&gt;Pokemon X and Pokemon X did defend itself.&lt;br&gt;&lt;br&gt;&lt;div style=&quot;text-align: left;&quot;&gt;&lt;span style=&quot;background-color: initial;&quot;&gt;In order to show how Pokemon acquired defense skill, two steps are&lt;/span&gt;&lt;/div&gt;&lt;div style=&quot;text-align: left;&quot;&gt;&lt;span style=&quot;background-color: initial;&quot;&gt;shown&amp;nbsp;&lt;/span&gt;&lt;span style=&quot;background-color: initial;&quot;&gt;in the diagram for this type of event:&lt;/span&gt;&lt;/div&gt;&lt;ul&gt;&lt;li&gt;Step 1: Pokemon X chose to defend in previous turn.&amp;nbsp;&lt;/li&gt;&lt;li&gt;Step 2: Pokemon Y chooses to attack in current turn.&lt;/li&gt;&lt;/ul&gt;&lt;div&gt;&lt;div style=&quot;--tw-border-spacing-x: 0; --tw-border-spacing-y: 0; --tw-translate-x: 0; --tw-translate-y: 0; --tw-rotate: 0; --tw-skew-x: 0; --tw-skew-y: 0; --tw-scale-x: 1; --tw-scale-y: 1; --tw-pan-x: ; --tw-pan-y: ; --tw-pinch-zoom: ; --tw-scroll-snap-strictness: proximity; --tw-gradient-from-position: ; --tw-gradient-via-position: ; --tw-gradient-to-position: ; --tw-ordinal: ; --tw-slashed-zero: ; --tw-numeric-figure: ; --tw-numeric-spacing: ; --tw-numeric-fraction: ; --tw-ring-inset: ; --tw-ring-offset-width: 0px; --tw-ring-offset-color: #fff; --tw-ring-color: rgb(59 130 246 / .5); --tw-ring-offset-shadow: 0 0 #0000; --tw-ring-shadow: 0 0 #0000; --tw-shadow: 0 0 #0000; --tw-shadow-colored: 0 0 #0000; --tw-blur: ; --tw-brightness: ; --tw-contrast: ; --tw-grayscale: ; --tw-hue-rotate: ; --tw-invert: ; --tw-saturate: ; --tw-sepia: ; --tw-drop-shadow: ; --tw-backdrop-blur: ; --tw-backdrop-brightness: ; --tw-backdrop-contrast: ; --tw-backdrop-grayscale: ; --tw-backdrop-hue-rotate: ; --tw-backdrop-invert: ; --tw-backdrop-opacity: ; --tw-backdrop-saturate: ; --tw-backdrop-sepia: ; border-color: var(--border-color); text-align: left;&quot;&gt;&lt;span style=&quot;--tw-border-spacing-x: 0; --tw-border-spacing-y: 0; --tw-translate-x: 0; --tw-translate-y: 0; --tw-rotate: 0; --tw-skew-x: 0; --tw-skew-y: 0; --tw-scale-x: 1; --tw-scale-y: 1; --tw-pan-x: ; --tw-pan-y: ; --tw-pinch-zoom: ; --tw-scroll-snap-strictness: proximity; --tw-gradient-from-position: ; --tw-gradient-via-position: ; --tw-gradient-to-position: ; --tw-ordinal: ; --tw-slashed-zero: ; --tw-numeric-figure: ; --tw-numeric-spacing: ; --tw-numeric-fraction: ; --tw-ring-inset: ; --tw-ring-offset-width: 0px; --tw-ring-offset-color: #fff; --tw-ring-color: rgb(59 130 246 / .5); --tw-ring-offset-shadow: 0 0 #0000; --tw-ring-shadow: 0 0 #0000; --tw-shadow: 0 0 #0000; --tw-shadow-colored: 0 0 #0000; --tw-blur: ; --tw-brightness: ; --tw-contrast: ; --tw-grayscale: ; --tw-hue-rotate: ; --tw-invert: ; --tw-saturate: ; --tw-sepia: ; --tw-drop-shadow: ; --tw-backdrop-blur: ; --tw-backdrop-brightness: ; --tw-backdrop-contrast: ; --tw-backdrop-grayscale: ; --tw-backdrop-hue-rotate: ; --tw-backdrop-invert: ; --tw-backdrop-opacity: ; --tw-backdrop-saturate: ; --tw-backdrop-sepia: ; border-color: var(--border-color); background-color: initial;&quot;&gt;No randomness shown in this event given the specific instruction.&lt;/span&gt;&lt;/div&gt;&lt;/div&gt;" style="text;html=1;align=center;verticalAlign=middle;resizable=0;points=[];autosize=1;strokeColor=none;fillColor=none;" parent="1" vertex="1">
          <mxGeometry x="1944" y="1294" width="390" height="170" as="geometry" />
        </mxCell>
        <mxCell id="mFk2ntDi1FZEo7PVR0d0-29" value="or" style="shape=umlFrame;whiteSpace=wrap;html=1;pointerEvents=0;width=40;height=20;" parent="1" vertex="1">
          <mxGeometry x="870" y="1874" width="300" height="120" as="geometry" />
        </mxCell>
        <mxCell id="S-XOReM7cgO_mep5rTjn-101" value="" style="shape=curlyBracket;whiteSpace=wrap;html=1;rounded=1;flipH=1;labelPosition=right;verticalLabelPosition=middle;align=left;verticalAlign=middle;" parent="1" vertex="1">
          <mxGeometry x="1909" y="1864" width="20" height="220" as="geometry" />
        </mxCell>
        <mxCell id="S-XOReM7cgO_mep5rTjn-102" value="&lt;b&gt;Game Result&lt;/b&gt;&lt;br&gt;&lt;br&gt;&lt;div style=&quot;text-align: left;&quot;&gt;&lt;span style=&quot;background-color: initial;&quot;&gt;In a regular game, Pokemons choose skills iteratively until one&amp;nbsp;&lt;/span&gt;&lt;span style=&quot;background-color: initial;&quot;&gt;has zero&amp;nbsp;&lt;/span&gt;&lt;/div&gt;&lt;div style=&quot;text-align: left;&quot;&gt;&lt;span style=&quot;background-color: initial;&quot;&gt;remaining&amp;nbsp;&lt;/span&gt;&lt;span style=&quot;background-color: initial;&quot;&gt;health point.&lt;/span&gt;&lt;/div&gt;&lt;div style=&quot;text-align: left;&quot;&gt;&lt;span style=&quot;background-color: initial;&quot;&gt;Given that this assignment only requires to show the two types of event&amp;nbsp;&lt;/span&gt;&lt;/div&gt;&lt;div style=&quot;text-align: left;&quot;&gt;&lt;span style=&quot;background-color: initial;&quot;&gt;above,&amp;nbsp;&lt;/span&gt;&lt;span style=&quot;background-color: initial;&quot;&gt;loop is omitted in this sequence diagram.&amp;nbsp;&lt;/span&gt;&lt;span style=&quot;background-color: initial;&quot;&gt;&amp;nbsp;&lt;/span&gt;&lt;/div&gt;" style="text;html=1;align=center;verticalAlign=middle;resizable=0;points=[];autosize=1;strokeColor=none;fillColor=none;" parent="1" vertex="1">
          <mxGeometry x="1934" y="1929" width="410" height="100" as="geometry" />
        </mxCell>
        <mxCell id="S-XOReM7cgO_mep5rTjn-103" value="CS6310 Spring 2024 |&amp;nbsp;Pokemon Tournament Project - Phase 1&lt;br style=&quot;font-size: 20px;&quot;&gt;Group 59 - Sequence Diagram" style="text;html=1;align=center;verticalAlign=middle;resizable=0;points=[];autosize=1;strokeColor=none;fillColor=none;fontStyle=1;fontSize=20;" parent="1" vertex="1">
          <mxGeometry x="870" y="30" width="610" height="60" as="geometry" />
        </mxCell>
        <mxCell id="S-XOReM7cgO_mep5rTjn-104" value="[current/max &amp;gt;= 0.7]" style="text;html=1;align=center;verticalAlign=middle;resizable=0;points=[];autosize=1;strokeColor=none;fillColor=none;" parent="1" vertex="1">
          <mxGeometry x="880" y="594" width="130" height="30" as="geometry" />
        </mxCell>
        <mxCell id="S-XOReM7cgO_mep5rTjn-105" value="[0.3 &amp;lt;= current/max &amp;lt; 0.7]" style="text;html=1;align=center;verticalAlign=middle;resizable=0;points=[];autosize=1;strokeColor=none;fillColor=none;" parent="1" vertex="1">
          <mxGeometry x="880" y="644" width="160" height="30" as="geometry" />
        </mxCell>
        <mxCell id="S-XOReM7cgO_mep5rTjn-106" value="[current/max &amp;lt; 0.3]" style="text;html=1;align=center;verticalAlign=middle;resizable=0;points=[];autosize=1;strokeColor=none;fillColor=none;" parent="1" vertex="1">
          <mxGeometry x="880" y="704" width="120" height="30" as="geometry" />
        </mxCell>
        <mxCell id="S-XOReM7cgO_mep5rTjn-107" value="" style="endArrow=none;dashed=1;html=1;rounded=0;exitX=0.001;exitY=0.354;exitDx=0;exitDy=0;exitPerimeter=0;entryX=0.999;entryY=0.343;entryDx=0;entryDy=0;entryPerimeter=0;dashPattern=8 8;" parent="1" source="S-XOReM7cgO_mep5rTjn-53" target="S-XOReM7cgO_mep5rTjn-53" edge="1">
          <mxGeometry width="50" height="50" relative="1" as="geometry">
            <mxPoint x="1240" y="674" as="sourcePoint" />
            <mxPoint x="1290" y="624" as="targetPoint" />
          </mxGeometry>
        </mxCell>
        <mxCell id="S-XOReM7cgO_mep5rTjn-108" value="" style="endArrow=none;dashed=1;html=1;rounded=0;entryX=0.999;entryY=0.343;entryDx=0;entryDy=0;entryPerimeter=0;dashPattern=8 8;" parent="1" edge="1">
          <mxGeometry width="50" height="50" relative="1" as="geometry">
            <mxPoint x="882" y="706" as="sourcePoint" />
            <mxPoint x="1690" y="704" as="targetPoint" />
          </mxGeometry>
        </mxCell>
        <mxCell id="S-XOReM7cgO_mep5rTjn-109" value="[current/max &amp;gt;= 0.7]" style="text;html=1;align=center;verticalAlign=middle;resizable=0;points=[];autosize=1;strokeColor=none;fillColor=none;" parent="1" vertex="1">
          <mxGeometry x="880" y="1104" width="130" height="30" as="geometry" />
        </mxCell>
        <mxCell id="S-XOReM7cgO_mep5rTjn-110" value="[0.3 &amp;lt;= current/max &amp;lt; 0.7]" style="text;html=1;align=center;verticalAlign=middle;resizable=0;points=[];autosize=1;strokeColor=none;fillColor=none;" parent="1" vertex="1">
          <mxGeometry x="880" y="1154" width="160" height="30" as="geometry" />
        </mxCell>
        <mxCell id="S-XOReM7cgO_mep5rTjn-111" value="[current/max &amp;lt; 0.3]" style="text;html=1;align=center;verticalAlign=middle;resizable=0;points=[];autosize=1;strokeColor=none;fillColor=none;" parent="1" vertex="1">
          <mxGeometry x="880" y="1214" width="120" height="30" as="geometry" />
        </mxCell>
        <mxCell id="S-XOReM7cgO_mep5rTjn-114" value="[current/max &amp;gt;= 0.7]" style="text;html=1;align=center;verticalAlign=middle;resizable=0;points=[];autosize=1;strokeColor=none;fillColor=none;" parent="1" vertex="1">
          <mxGeometry x="1000" y="1549" width="130" height="30" as="geometry" />
        </mxCell>
        <mxCell id="S-XOReM7cgO_mep5rTjn-115" value="[0.3 &amp;lt;= current/max &amp;lt; 0.7]" style="text;html=1;align=center;verticalAlign=middle;resizable=0;points=[];autosize=1;strokeColor=none;fillColor=none;" parent="1" vertex="1">
          <mxGeometry x="1000" y="1595" width="160" height="30" as="geometry" />
        </mxCell>
        <mxCell id="S-XOReM7cgO_mep5rTjn-116" value="[current/max &amp;lt; 0.3]" style="text;html=1;align=center;verticalAlign=middle;resizable=0;points=[];autosize=1;strokeColor=none;fillColor=none;" parent="1" vertex="1">
          <mxGeometry x="1000" y="1653" width="120" height="30" as="geometry" />
        </mxCell>
        <mxCell id="S-XOReM7cgO_mep5rTjn-119" value="" style="shape=curlyBracket;whiteSpace=wrap;html=1;rounded=1;flipH=1;labelPosition=right;verticalLabelPosition=middle;align=left;verticalAlign=middle;" parent="1" vertex="1">
          <mxGeometry x="1830" y="974" width="20" height="400" as="geometry" />
        </mxCell>
        <mxCell id="S-XOReM7cgO_mep5rTjn-121" value="Step 1" style="text;html=1;align=center;verticalAlign=middle;resizable=0;points=[];autosize=1;strokeColor=none;fillColor=none;" parent="1" vertex="1">
          <mxGeometry x="1849" y="1159" width="60" height="30" as="geometry" />
        </mxCell>
        <mxCell id="S-XOReM7cgO_mep5rTjn-122" value="" style="shape=curlyBracket;whiteSpace=wrap;html=1;rounded=1;flipH=1;labelPosition=right;verticalLabelPosition=middle;align=left;verticalAlign=middle;" parent="1" vertex="1">
          <mxGeometry x="1830" y="1384" width="20" height="470" as="geometry" />
        </mxCell>
        <mxCell id="S-XOReM7cgO_mep5rTjn-123" value="Step 2" style="text;html=1;align=center;verticalAlign=middle;resizable=0;points=[];autosize=1;strokeColor=none;fillColor=none;" parent="1" vertex="1">
          <mxGeometry x="1849" y="1584" width="60" height="30" as="geometry" />
        </mxCell>
        <mxCell id="BJGmudPgznRf8jIf-ynD-2" value="doDamage()" style="html=1;verticalAlign=bottom;endArrow=block;edgeStyle=orthogonalEdgeStyle;elbow=vertical;rounded=0;exitX=0.1;exitY=0.212;exitDx=0;exitDy=0;exitPerimeter=0;" edge="1" parent="1">
          <mxGeometry x="-0.2254" relative="1" as="geometry">
            <mxPoint x="936" y="520" as="sourcePoint" />
            <Array as="points">
              <mxPoint x="936" y="521" />
              <mxPoint x="997" y="521" />
            </Array>
            <mxPoint x="936" y="540" as="targetPoint" />
            <mxPoint as="offset" />
          </mxGeometry>
        </mxCell>
        <mxCell id="BJGmudPgznRf8jIf-ynD-3" value="getHealthRatio()" style="html=1;verticalAlign=bottom;endArrow=block;edgeStyle=orthogonalEdgeStyle;elbow=vertical;rounded=0;exitX=0.1;exitY=0.212;exitDx=0;exitDy=0;exitPerimeter=0;" edge="1" parent="1">
          <mxGeometry x="-0.2254" relative="1" as="geometry">
            <mxPoint x="1295" y="558" as="sourcePoint" />
            <Array as="points">
              <mxPoint x="1295" y="559" />
              <mxPoint x="1356" y="559" />
            </Array>
            <mxPoint x="1295" y="578" as="targetPoint" />
            <mxPoint as="offset" />
          </mxGeometry>
        </mxCell>
        <mxCell id="BJGmudPgznRf8jIf-ynD-4" value="takeDamage() - Full damage as Y has no defense" style="html=1;verticalAlign=bottom;endArrow=block;edgeStyle=orthogonalEdgeStyle;elbow=vertical;rounded=0;exitX=0.1;exitY=0.212;exitDx=0;exitDy=0;exitPerimeter=0;" edge="1" parent="1">
          <mxGeometry x="-0.1268" y="64" relative="1" as="geometry">
            <mxPoint x="1055" y="864" as="sourcePoint" />
            <Array as="points">
              <mxPoint x="1055" y="865" />
              <mxPoint x="1116" y="865" />
            </Array>
            <mxPoint x="1055" y="884" as="targetPoint" />
            <mxPoint as="offset" />
          </mxGeometry>
        </mxCell>
        <mxCell id="BJGmudPgznRf8jIf-ynD-5" value="isFainted() == False" style="html=1;verticalAlign=bottom;endArrow=block;edgeStyle=orthogonalEdgeStyle;elbow=vertical;rounded=0;exitX=0.1;exitY=0.212;exitDx=0;exitDy=0;exitPerimeter=0;" edge="1" parent="1">
          <mxGeometry x="-0.2254" relative="1" as="geometry">
            <mxPoint x="936" y="989" as="sourcePoint" />
            <Array as="points">
              <mxPoint x="936" y="990" />
              <mxPoint x="997" y="990" />
            </Array>
            <mxPoint x="936" y="1009" as="targetPoint" />
            <mxPoint as="offset" />
          </mxGeometry>
        </mxCell>
        <mxCell id="BJGmudPgznRf8jIf-ynD-6" value="doDamage()" style="html=1;verticalAlign=bottom;endArrow=block;edgeStyle=orthogonalEdgeStyle;elbow=vertical;rounded=0;exitX=0.1;exitY=0.212;exitDx=0;exitDy=0;exitPerimeter=0;" edge="1" parent="1">
          <mxGeometry x="-0.2254" relative="1" as="geometry">
            <mxPoint x="936" y="1026" as="sourcePoint" />
            <Array as="points">
              <mxPoint x="936" y="1027" />
              <mxPoint x="997" y="1027" />
            </Array>
            <mxPoint x="936" y="1046" as="targetPoint" />
            <mxPoint as="offset" />
          </mxGeometry>
        </mxCell>
        <mxCell id="BJGmudPgznRf8jIf-ynD-7" value="getHealthRatio()" style="html=1;verticalAlign=bottom;endArrow=block;edgeStyle=orthogonalEdgeStyle;elbow=vertical;rounded=0;exitX=0.1;exitY=0.212;exitDx=0;exitDy=0;exitPerimeter=0;" edge="1" parent="1">
          <mxGeometry x="-0.2254" relative="1" as="geometry">
            <mxPoint x="1295" y="1065" as="sourcePoint" />
            <Array as="points">
              <mxPoint x="1295" y="1066" />
              <mxPoint x="1356" y="1066" />
            </Array>
            <mxPoint x="1295" y="1085" as="targetPoint" />
            <mxPoint as="offset" />
          </mxGeometry>
        </mxCell>
        <mxCell id="BJGmudPgznRf8jIf-ynD-8" value="setDefense()" style="html=1;verticalAlign=bottom;endArrow=block;edgeStyle=orthogonalEdgeStyle;elbow=vertical;rounded=0;exitX=0.1;exitY=0.212;exitDx=0;exitDy=0;exitPerimeter=0;" edge="1" parent="1">
          <mxGeometry x="-0.2254" relative="1" as="geometry">
            <mxPoint x="935.5" y="1345" as="sourcePoint" />
            <Array as="points">
              <mxPoint x="935.5" y="1346" />
              <mxPoint x="996.5" y="1346" />
            </Array>
            <mxPoint x="935.5" y="1365" as="targetPoint" />
            <mxPoint as="offset" />
          </mxGeometry>
        </mxCell>
        <mxCell id="BJGmudPgznRf8jIf-ynD-9" value="battle()" style="html=1;verticalAlign=bottom;endArrow=block;curved=0;rounded=0;" edge="1" parent="1">
          <mxGeometry width="80" relative="1" as="geometry">
            <mxPoint x="935" y="1384" as="sourcePoint" />
            <mxPoint x="1045.5" y="1384" as="targetPoint" />
          </mxGeometry>
        </mxCell>
        <mxCell id="BJGmudPgznRf8jIf-ynD-10" value="isFainted() == False" style="html=1;verticalAlign=bottom;endArrow=block;edgeStyle=orthogonalEdgeStyle;elbow=vertical;rounded=0;exitX=0.1;exitY=0.212;exitDx=0;exitDy=0;exitPerimeter=0;" edge="1" parent="1">
          <mxGeometry x="-0.2254" relative="1" as="geometry">
            <mxPoint x="1056" y="1431" as="sourcePoint" />
            <Array as="points">
              <mxPoint x="1056" y="1432" />
              <mxPoint x="1117" y="1432" />
            </Array>
            <mxPoint x="1056" y="1451" as="targetPoint" />
            <mxPoint as="offset" />
          </mxGeometry>
        </mxCell>
        <mxCell id="BJGmudPgznRf8jIf-ynD-11" value="doDamage()" style="html=1;verticalAlign=bottom;endArrow=block;edgeStyle=orthogonalEdgeStyle;elbow=vertical;rounded=0;exitX=0.1;exitY=0.212;exitDx=0;exitDy=0;exitPerimeter=0;" edge="1" parent="1">
          <mxGeometry x="-0.2254" relative="1" as="geometry">
            <mxPoint x="1056" y="1467" as="sourcePoint" />
            <Array as="points">
              <mxPoint x="1056" y="1468" />
              <mxPoint x="1117" y="1468" />
            </Array>
            <mxPoint x="1056" y="1487" as="targetPoint" />
            <mxPoint as="offset" />
          </mxGeometry>
        </mxCell>
        <mxCell id="BJGmudPgznRf8jIf-ynD-12" value="getHealthRatio()" style="html=1;verticalAlign=bottom;endArrow=block;edgeStyle=orthogonalEdgeStyle;elbow=vertical;rounded=0;exitX=0.1;exitY=0.212;exitDx=0;exitDy=0;exitPerimeter=0;" edge="1" parent="1">
          <mxGeometry x="-0.2254" relative="1" as="geometry">
            <mxPoint x="1295" y="1507" as="sourcePoint" />
            <Array as="points">
              <mxPoint x="1295" y="1508" />
              <mxPoint x="1356" y="1508" />
            </Array>
            <mxPoint x="1295" y="1527" as="targetPoint" />
            <mxPoint as="offset" />
          </mxGeometry>
        </mxCell>
        <mxCell id="BJGmudPgznRf8jIf-ynD-14" value="takeDamage(): no damage as X chose defense in previous turn" style="html=1;verticalAlign=bottom;endArrow=block;edgeStyle=orthogonalEdgeStyle;elbow=vertical;rounded=0;exitX=0.1;exitY=0.212;exitDx=0;exitDy=0;exitPerimeter=0;" edge="1" parent="1">
          <mxGeometry x="-0.1268" y="92" relative="1" as="geometry">
            <mxPoint x="1057" y="1392" as="sourcePoint" />
            <Array as="points">
              <mxPoint x="1057" y="1393" />
              <mxPoint x="1118" y="1393" />
            </Array>
            <mxPoint x="1057" y="1412" as="targetPoint" />
            <mxPoint as="offset" />
          </mxGeometry>
        </mxCell>
        <mxCell id="BJGmudPgznRf8jIf-ynD-15" value="takeDamage() - demage point = max(0, damage - defense)" style="html=1;verticalAlign=bottom;endArrow=block;edgeStyle=orthogonalEdgeStyle;elbow=vertical;rounded=0;exitX=0.1;exitY=0.212;exitDx=0;exitDy=0;exitPerimeter=0;" edge="1" parent="1">
          <mxGeometry x="-0.1268" y="83" relative="1" as="geometry">
            <mxPoint x="936" y="1818" as="sourcePoint" />
            <Array as="points">
              <mxPoint x="936" y="1819" />
              <mxPoint x="997" y="1819" />
            </Array>
            <mxPoint x="936" y="1838" as="targetPoint" />
            <mxPoint as="offset" />
          </mxGeometry>
        </mxCell>
        <mxCell id="BJGmudPgznRf8jIf-ynD-16" value="isFainted() == True" style="html=1;verticalAlign=bottom;endArrow=block;edgeStyle=orthogonalEdgeStyle;elbow=vertical;rounded=0;exitX=0.1;exitY=0.212;exitDx=0;exitDy=0;exitPerimeter=0;" edge="1" parent="1">
          <mxGeometry x="-0.2254" relative="1" as="geometry">
            <mxPoint x="934.5" y="1894" as="sourcePoint" />
            <Array as="points">
              <mxPoint x="934.5" y="1895" />
              <mxPoint x="995.5" y="1895" />
            </Array>
            <mxPoint x="934.5" y="1914" as="targetPoint" />
            <mxPoint as="offset" />
          </mxGeometry>
        </mxCell>
        <mxCell id="BJGmudPgznRf8jIf-ynD-17" value="isFainted() == True" style="html=1;verticalAlign=bottom;endArrow=block;edgeStyle=orthogonalEdgeStyle;elbow=vertical;rounded=0;exitX=0.1;exitY=0.212;exitDx=0;exitDy=0;exitPerimeter=0;" edge="1" parent="1">
          <mxGeometry x="-0.2254" relative="1" as="geometry">
            <mxPoint x="1056" y="1954" as="sourcePoint" />
            <Array as="points">
              <mxPoint x="1056" y="1955" />
              <mxPoint x="1117" y="1955" />
            </Array>
            <mxPoint x="1056" y="1974" as="targetPoint" />
            <mxPoint as="offset" />
          </mxGeometry>
        </mxCell>
        <mxCell id="BJGmudPgznRf8jIf-ynD-18" value="Pokemon Y has lost&lt;br&gt;Pokemon X has won the battle" style="html=1;verticalAlign=bottom;endArrow=blockThin;dashed=1;endSize=8;curved=0;rounded=0;endFill=1;" edge="1" parent="1">
          <mxGeometry x="-0.1343" relative="1" as="geometry">
            <mxPoint x="1045" y="1986" as="sourcePoint" />
            <mxPoint x="39.99736842105263" y="1986" as="targetPoint" />
            <mxPoint as="offset" />
          </mxGeometry>
        </mxCell>
        <mxCell id="BJGmudPgznRf8jIf-ynD-20" value="CommandProcessor()" style="html=1;verticalAlign=bottom;endArrow=block;edgeStyle=elbowEdgeStyle;elbow=horizontal;curved=0;rounded=0;" edge="1" parent="1">
          <mxGeometry x="-0.1765" relative="1" as="geometry">
            <mxPoint x="223" y="218" as="sourcePoint" />
            <Array as="points" />
            <mxPoint x="373" y="218" as="targetPoint" />
            <mxPoint as="offset" />
          </mxGeometry>
        </mxCell>
        <mxCell id="BJGmudPgznRf8jIf-ynD-21" value="alt" style="shape=umlFrame;whiteSpace=wrap;html=1;pointerEvents=0;width=40;height=20;" vertex="1" parent="1">
          <mxGeometry y="368" width="720" height="20" as="geometry" />
        </mxCell>
        <mxCell id="BJGmudPgznRf8jIf-ynD-22" value="alt" style="shape=umlFrame;whiteSpace=wrap;html=1;pointerEvents=0;width=40;height=20;" vertex="1" parent="1">
          <mxGeometry y="310" width="220" height="20" as="geometry" />
        </mxCell>
        <mxCell id="BJGmudPgznRf8jIf-ynD-23" value="Error Message" style="html=1;verticalAlign=bottom;endArrow=blockThin;dashed=1;endSize=8;curved=0;rounded=0;endFill=1;" edge="1" parent="1">
          <mxGeometry x="0.0062" relative="1" as="geometry">
            <mxPoint x="207" y="327" as="sourcePoint" />
            <mxPoint x="47" y="327" as="targetPoint" />
            <mxPoint as="offset" />
          </mxGeometry>
        </mxCell>
        <mxCell id="BJGmudPgznRf8jIf-ynD-32" value="" style="html=1;points=[];perimeter=orthogonalPerimeter;outlineConnect=0;targetShapes=umlLifeline;portConstraint=eastwest;newEdgeStyle={&quot;edgeStyle&quot;:&quot;elbowEdgeStyle&quot;,&quot;elbow&quot;:&quot;vertical&quot;,&quot;curved&quot;:0,&quot;rounded&quot;:0};" vertex="1" parent="1">
          <mxGeometry x="1645" y="1075" width="10" height="220" as="geometry" />
        </mxCell>
        <mxCell id="BJGmudPgznRf8jIf-ynD-25" value="" style="endArrow=none;dashed=1;html=1;rounded=0;dashPattern=8 8;" edge="1" parent="1">
          <mxGeometry width="50" height="50" relative="1" as="geometry">
            <mxPoint x="870" y="1936" as="sourcePoint" />
            <mxPoint x="1170" y="1936" as="targetPoint" />
          </mxGeometry>
        </mxCell>
        <mxCell id="BJGmudPgznRf8jIf-ynD-33" value="" style="html=1;points=[];perimeter=orthogonalPerimeter;outlineConnect=0;targetShapes=umlLifeline;portConstraint=eastwest;newEdgeStyle={&quot;edgeStyle&quot;:&quot;elbowEdgeStyle&quot;,&quot;elbow&quot;:&quot;vertical&quot;,&quot;curved&quot;:0,&quot;rounded&quot;:0};" vertex="1" parent="1">
          <mxGeometry x="1395" y="1076" width="10" height="220" as="geometry" />
        </mxCell>
        <mxCell id="S-XOReM7cgO_mep5rTjn-65" value="getBattleState()" style="html=1;verticalAlign=bottom;endArrow=block;edgeStyle=elbowEdgeStyle;elbow=vertical;curved=0;rounded=0;exitX=0.1;exitY=0.212;exitDx=0;exitDy=0;exitPerimeter=0;" parent="1" edge="1">
          <mxGeometry x="-0.5349" relative="1" as="geometry">
            <mxPoint x="1296.5" y="1184.55" as="sourcePoint" />
            <Array as="points" />
            <mxPoint x="1524" y="1184.55" as="targetPoint" />
            <mxPoint as="offset" />
          </mxGeometry>
        </mxCell>
        <mxCell id="BJGmudPgznRf8jIf-ynD-36" value="getBattleState()" style="html=1;verticalAlign=bottom;endArrow=block;edgeStyle=elbowEdgeStyle;elbow=vertical;curved=0;rounded=0;exitX=0.1;exitY=0.212;exitDx=0;exitDy=0;exitPerimeter=0;" edge="1" parent="1">
          <mxGeometry x="-0.7339" relative="1" as="geometry">
            <mxPoint x="1292" y="1237" as="sourcePoint" />
            <Array as="points" />
            <mxPoint x="1649" y="1237.076923076923" as="targetPoint" />
            <mxPoint x="1" as="offset" />
          </mxGeometry>
        </mxCell>
        <mxCell id="BJGmudPgznRf8jIf-ynD-37" value="" style="html=1;points=[];perimeter=orthogonalPerimeter;outlineConnect=0;targetShapes=umlLifeline;portConstraint=eastwest;newEdgeStyle={&quot;edgeStyle&quot;:&quot;elbowEdgeStyle&quot;,&quot;elbow&quot;:&quot;vertical&quot;,&quot;curved&quot;:0,&quot;rounded&quot;:0};" vertex="1" parent="1">
          <mxGeometry x="1645" y="1520" width="10" height="195" as="geometry" />
        </mxCell>
        <mxCell id="BJGmudPgznRf8jIf-ynD-38" value="" style="html=1;points=[];perimeter=orthogonalPerimeter;outlineConnect=0;targetShapes=umlLifeline;portConstraint=eastwest;newEdgeStyle={&quot;edgeStyle&quot;:&quot;elbowEdgeStyle&quot;,&quot;elbow&quot;:&quot;vertical&quot;,&quot;curved&quot;:0,&quot;rounded&quot;:0};" vertex="1" parent="1">
          <mxGeometry x="1520" y="1520" width="10" height="195" as="geometry" />
        </mxCell>
        <mxCell id="BJGmudPgznRf8jIf-ynD-39" value="" style="html=1;points=[];perimeter=orthogonalPerimeter;outlineConnect=0;targetShapes=umlLifeline;portConstraint=eastwest;newEdgeStyle={&quot;edgeStyle&quot;:&quot;elbowEdgeStyle&quot;,&quot;elbow&quot;:&quot;vertical&quot;,&quot;curved&quot;:0,&quot;rounded&quot;:0};" vertex="1" parent="1">
          <mxGeometry x="1395" y="1521.5" width="10" height="195" as="geometry" />
        </mxCell>
        <mxCell id="S-XOReM7cgO_mep5rTjn-76" value="alt" style="shape=umlFrame;whiteSpace=wrap;html=1;pointerEvents=0;width=40;height=20;" parent="1" vertex="1">
          <mxGeometry x="1000" y="1534" width="690" height="170" as="geometry" />
        </mxCell>
        <mxCell id="S-XOReM7cgO_mep5rTjn-117" value="" style="endArrow=none;dashed=1;html=1;rounded=0;entryX=0.999;entryY=0.343;entryDx=0;entryDy=0;entryPerimeter=0;dashPattern=8 8;" parent="1" edge="1">
          <mxGeometry width="50" height="50" relative="1" as="geometry">
            <mxPoint x="1000" y="1593" as="sourcePoint" />
            <mxPoint x="1689" y="1593" as="targetPoint" />
          </mxGeometry>
        </mxCell>
        <mxCell id="S-XOReM7cgO_mep5rTjn-78" value="getBattleState()" style="html=1;verticalAlign=bottom;endArrow=block;edgeStyle=elbowEdgeStyle;elbow=vertical;curved=0;rounded=0;exitX=0.1;exitY=0.212;exitDx=0;exitDy=0;exitPerimeter=0;" parent="1" edge="1">
          <mxGeometry x="-0.5349" relative="1" as="geometry">
            <mxPoint x="1296.5" y="1620.55" as="sourcePoint" />
            <Array as="points" />
            <mxPoint x="1524" y="1620.55" as="targetPoint" />
            <mxPoint as="offset" />
          </mxGeometry>
        </mxCell>
        <mxCell id="S-XOReM7cgO_mep5rTjn-74" value="shouldAttack()" style="html=1;verticalAlign=bottom;endArrow=blockThin;endSize=8;curved=0;rounded=0;endFill=1;dashed=1;" parent="1" edge="1">
          <mxGeometry x="-0.234" relative="1" as="geometry">
            <mxPoint x="1520" y="1639.9999999999998" as="sourcePoint" />
            <mxPoint x="1050" y="1640" as="targetPoint" />
            <mxPoint as="offset" />
          </mxGeometry>
        </mxCell>
        <mxCell id="S-XOReM7cgO_mep5rTjn-75" value="shouldAttack()" style="html=1;verticalAlign=bottom;endArrow=blockThin;endSize=8;curved=0;rounded=0;endFill=1;dashed=1;" parent="1" edge="1">
          <mxGeometry x="0.0333" relative="1" as="geometry">
            <mxPoint x="1650" y="1689.9999999999998" as="sourcePoint" />
            <mxPoint x="1050" y="1689" as="targetPoint" />
            <mxPoint as="offset" />
          </mxGeometry>
        </mxCell>
        <mxCell id="S-XOReM7cgO_mep5rTjn-79" value="getBattleState()" style="html=1;verticalAlign=bottom;endArrow=block;edgeStyle=elbowEdgeStyle;elbow=vertical;curved=0;rounded=0;exitX=0.1;exitY=0.212;exitDx=0;exitDy=0;exitPerimeter=0;" parent="1" edge="1">
          <mxGeometry x="-0.7339" relative="1" as="geometry">
            <mxPoint x="1296.5" y="1670.55" as="sourcePoint" />
            <Array as="points" />
            <mxPoint x="1653.5" y="1670.626923076923" as="targetPoint" />
            <mxPoint x="1" as="offset" />
          </mxGeometry>
        </mxCell>
        <mxCell id="S-XOReM7cgO_mep5rTjn-118" value="" style="endArrow=none;dashed=1;html=1;rounded=0;entryX=0.999;entryY=0.343;entryDx=0;entryDy=0;entryPerimeter=0;dashPattern=8 8;" parent="1" edge="1">
          <mxGeometry width="50" height="50" relative="1" as="geometry">
            <mxPoint x="1000" y="1653" as="sourcePoint" />
            <mxPoint x="1690" y="1651" as="targetPoint" />
          </mxGeometry>
        </mxCell>
        <mxCell id="BJGmudPgznRf8jIf-ynD-40" value="" style="html=1;points=[];perimeter=orthogonalPerimeter;outlineConnect=0;targetShapes=umlLifeline;portConstraint=eastwest;newEdgeStyle={&quot;edgeStyle&quot;:&quot;elbowEdgeStyle&quot;,&quot;elbow&quot;:&quot;vertical&quot;,&quot;curved&quot;:0,&quot;rounded&quot;:0};" vertex="1" parent="1">
          <mxGeometry x="1285" y="1046" width="10" height="250" as="geometry" />
        </mxCell>
        <mxCell id="S-XOReM7cgO_mep5rTjn-59" value="shouldAttack()" style="html=1;verticalAlign=bottom;endArrow=blockThin;endSize=8;curved=0;rounded=0;endFill=1;dashed=1;" parent="1" edge="1">
          <mxGeometry x="-0.764" relative="1" as="geometry">
            <mxPoint x="1395.0000000000002" y="1144" as="sourcePoint" />
            <mxPoint x="928.9615384615386" y="1144" as="targetPoint" />
            <mxPoint as="offset" />
          </mxGeometry>
        </mxCell>
        <mxCell id="S-XOReM7cgO_mep5rTjn-63" value="alt" style="shape=umlFrame;whiteSpace=wrap;html=1;pointerEvents=0;width=40;height=20;" parent="1" vertex="1">
          <mxGeometry x="880" y="1092" width="810" height="180" as="geometry" />
        </mxCell>
        <mxCell id="S-XOReM7cgO_mep5rTjn-113" value="" style="endArrow=none;dashed=1;html=1;rounded=0;entryX=0.999;entryY=0.343;entryDx=0;entryDy=0;entryPerimeter=0;dashPattern=8 8;" parent="1" edge="1">
          <mxGeometry width="50" height="50" relative="1" as="geometry">
            <mxPoint x="882" y="1216" as="sourcePoint" />
            <mxPoint x="1690" y="1214" as="targetPoint" />
          </mxGeometry>
        </mxCell>
        <mxCell id="S-XOReM7cgO_mep5rTjn-61" value="shouldAttack()" style="html=1;verticalAlign=bottom;endArrow=blockThin;endSize=8;curved=0;rounded=0;endFill=1;dashed=1;" parent="1" edge="1">
          <mxGeometry x="-0.1397" relative="1" as="geometry">
            <mxPoint x="1650" y="1253.9999999999998" as="sourcePoint" />
            <mxPoint x="930" y="1253.9999999999998" as="targetPoint" />
            <mxPoint as="offset" />
          </mxGeometry>
        </mxCell>
        <mxCell id="S-XOReM7cgO_mep5rTjn-60" value="shouldAttack()" style="html=1;verticalAlign=bottom;endArrow=blockThin;endSize=8;curved=0;rounded=0;endFill=1;dashed=1;" parent="1" edge="1">
          <mxGeometry x="-0.3898" relative="1" as="geometry">
            <mxPoint x="1520" y="1203.9999999999998" as="sourcePoint" />
            <mxPoint x="930" y="1203.9999999999998" as="targetPoint" />
            <mxPoint as="offset" />
          </mxGeometry>
        </mxCell>
        <mxCell id="S-XOReM7cgO_mep5rTjn-112" value="" style="endArrow=none;dashed=1;html=1;rounded=0;exitX=0.001;exitY=0.354;exitDx=0;exitDy=0;exitPerimeter=0;entryX=0.999;entryY=0.343;entryDx=0;entryDy=0;entryPerimeter=0;dashPattern=8 8;" parent="1" edge="1">
          <mxGeometry width="50" height="50" relative="1" as="geometry">
            <mxPoint x="881" y="1158" as="sourcePoint" />
            <mxPoint x="1689" y="1156" as="targetPoint" />
          </mxGeometry>
        </mxCell>
      </root>
    </mxGraphModel>
  </diagram>
</mxfile>
